<svg xmlns="http://www.w3.org/2000/svg" width="23.632" height="23.487" viewBox="0 0 23.632 23.487">
  <path id="_2468553_approve_approved_check_list_ok_icon" data-name="2468553_approve_approved_check_list_ok_icon" d="M29.6,31.613l3.907,3.907L43.618,25.41c1.252-1.252,2.445.089,1.282,1.252L34.463,37.1c-.775.775-1.1.835-1.879.06L28.32,32.9c-1.044-1.044.209-2.326,1.282-1.282m15.566.895a12.564,12.564,0,0,1,.06,2.117A11.774,11.774,0,1,1,39.95,24.038c1.223.805.417,2.386-1.074,1.431a9.774,9.774,0,0,0-5.368-1.61,9.956,9.956,0,1,0,9.93,10.676,12.825,12.825,0,0,0-.03-1.849C43.23,31.225,45.02,31.046,45.169,32.507Z" transform="translate(-21.742 -22.1)" fill="#fff"/>
</svg>
